<svg xmlns="http://www.w3.org/2000/svg" viewBox="0 0 32 32"><defs><style>.cls-1{fill:#0db731;}</style></defs><title>carita4</title><g id="Layer_2" data-name="Layer 2"><g id="Mockups"><path class="cls-1" d="M21.76,8H19.52V9.18a2.8,2.8,0,0,0,.56,5.54H21.2a.56.56,0,0,1,0,1.12H17.28v2.24h2.24V19.2h2.24V18a2.8,2.8,0,0,0-.56-5.54H20.08a.56.56,0,0,1,0-1.12H24V9.12H21.76Z"/><path class="cls-1" d="M14.72,15.28a2.8,2.8,0,0,0-2.8-2.8H10.8a.56.56,0,0,1,0-1.12h3.92V9.12H12.48V8H10.24V9.18a2.8,2.8,0,0,0,.56,5.54h1.12a.56.56,0,0,1,0,1.12H8v2.24h2.24V19.2h2.24V18A2.81,2.81,0,0,0,14.72,15.28Z"/><path class="cls-1" d="M16,0A16,16,0,1,0,32,16,16,16,0,0,0,16,0Zm0,28.8A12.8,12.8,0,1,1,28.8,16,12.81,12.81,0,0,1,16,28.8Z"/><rect class="cls-1" x="12.8" y="20.8" width="6.4" height="3.2"/></g></g></svg>