<svg xmlns="http://www.w3.org/2000/svg" viewBox="0 0 32 32"><defs><style>.cls-1{fill:#fbbb00;}.cls-2{fill:#518ef8;}.cls-3{fill:#28b446;}.cls-4{fill:#f14336;}</style></defs><title>google</title><g id="Layer_2" data-name="Layer 2"><g id="Mockups"><path class="cls-1" d="M7.09,19.34,6,23.5l-4.07.09A16,16,0,0,1,1.79,8.64h0l3.62.66L7,12.91a9.55,9.55,0,0,0,.09,6.43Z"/><path class="cls-2" d="M31.72,13A16,16,0,0,1,26,28.48h0l-4.57-.23-.65-4a9.54,9.54,0,0,0,4.1-4.87H16.35V13H31.72Z"/><path class="cls-3" d="M26,28.48h0A16,16,0,0,1,1.91,23.58l5.19-4.24A9.52,9.52,0,0,0,20.8,24.21Z"/><path class="cls-4" d="M26.21,3.68,21,7.93a9.51,9.51,0,0,0-14,5L1.79,8.64h0a16,16,0,0,1,24.42-5Z"/></g></g></svg>