<svg xmlns="http://www.w3.org/2000/svg" viewBox="0 0 20 21.41"><defs><style>.cls-1{fill:#fff;}</style></defs><title>icoMovimientos</title><g id="Layer_2" data-name="Layer 2"><g id="Mockups"><polygon class="cls-1" points="18 0.71 18 3.29 14.71 0 13.29 1.41 16.59 4.71 14 4.71 14 6.71 20 6.71 20 0.71 18 0.71"/><polygon class="cls-1" points="6 16.71 6 14.71 0 14.71 0 20.71 2 20.71 2 18.12 5.29 21.41 6.71 20 3.41 16.71 6 16.71"/><path class="cls-1" d="M17,7.71H10a2,2,0,0,0-2,2v9a2,2,0,0,0,2,2h7a2,2,0,0,0,2-2v-9A2,2,0,0,0,17,7.71Zm-7,11v-9h7v9Z"/><path class="cls-1" d="M3,2.71h7v4h2v-4a2,2,0,0,0-2-2H3a2,2,0,0,0-2,2v9a2,2,0,0,0,2,2H7v-2H3Z"/></g></g></svg>