<svg xmlns="http://www.w3.org/2000/svg" viewBox="0 0 20 20"><defs><style>.cls-1{fill:#fff;}</style></defs><title>icoNumFrec</title><g id="Layer_2" data-name="Layer 2"><g id="Mockups"><polygon class="cls-1" points="11.58 0 11.58 2.1 16.41 2.1 9.78 8.73 11.27 10.22 17.89 3.59 17.89 8.42 20 8.42 20 0 11.58 0"/><path class="cls-1" d="M17.89,11.58H13.68a2.11,2.11,0,0,0-2.1,2A6.2,6.2,0,0,1,6.41,8.42a2.11,2.11,0,0,0,2-2.1V2.11A2.11,2.11,0,0,0,6.32,0H2.11A2.11,2.11,0,0,0,0,2.11V7.37A12.65,12.65,0,0,0,12.63,20h5.26A2.11,2.11,0,0,0,20,17.89V13.68A2.11,2.11,0,0,0,17.89,11.58Zm-5.26,6.32A10.54,10.54,0,0,1,2.11,7.37V2.11H6.32V6.32H5.26A1.05,1.05,0,0,0,4.21,7.39a8.32,8.32,0,0,0,8.42,8.4,1.05,1.05,0,0,0,1.05-1.05V13.68h4.21v4.21Z"/></g></g></svg>