<svg xmlns="http://www.w3.org/2000/svg" viewBox="0 0 18 18.92"><defs><style>.cls-1{fill:#aeb7b1;}</style></defs><title>icoOperadoraGrs</title><g id="Layer_2" data-name="Layer 2"><g id="Mockups"><path class="cls-1" d="M14.41,18.92H3.59v-1.8c0-2.57,2.32-4.5,5.41-4.5s5.4,1.94,5.4,4.5Zm-9-1.8H12.6c0-1.57-1.52-2.7-3.6-2.7S5.4,15.55,5.4,17.11Z"/><path class="cls-1" d="M5.82,11.42a4,4,0,1,1,6.37,0,7.12,7.12,0,0,1,1.59.9,5.85,5.85,0,1,0-9.55,0A7.09,7.09,0,0,1,5.82,11.42Z"/><path class="cls-1" d="M3.21,13.28a7.2,7.2,0,1,1,11.59,0,5.92,5.92,0,0,1,1,1.64,9,9,0,1,0-13.57,0A5.91,5.91,0,0,1,3.21,13.28Z"/><path class="cls-1" d="M9,11.71A2.7,2.7,0,1,1,11.7,9,2.71,2.71,0,0,1,9,11.71ZM9,8.1a.9.9,0,1,0,.9.9A.9.9,0,0,0,9,8.1Z"/></g></g></svg>