<svg xmlns="http://www.w3.org/2000/svg" viewBox="0 0 24 20"><defs><style>.cls-1{fill:#ffb92e;}</style></defs><title>icoPromo</title><g id="Layer_2" data-name="Layer 2"><g id="Mockups"><circle class="cls-1" cx="16" cy="11" r="2"/><path class="cls-1" d="M23,5H21.57L18.86.49a1,1,0,0,0-1.44-.3L10.68,5h3.44L17.7,2.44,19.23,5H15V7h7v8H10V13H8v3a1,1,0,0,0,1,1h6.88l-.22.45a1,1,0,0,1-.89.55H8.41L6,15.59V10.41L8.41,8H12V9a1,1,0,0,1-1,1H9v2h2a3,3,0,0,0,3-3V7a1,1,0,0,0-1-1H8a1,1,0,0,0-.71.29L5.46,8.13A1,1,0,0,0,5,8H1A1,1,0,0,0,0,9v8a1,1,0,0,0,1,1H5a1,1,0,0,0,.46-.13l1.83,1.83A1,1,0,0,0,8,20h6.76a3,3,0,0,0,2.68-1.66L18.12,17H23a1,1,0,0,0,1-1V6A1,1,0,0,0,23,5ZM4,16H2V10H4Z"/></g></g></svg>