<svg xmlns="http://www.w3.org/2000/svg" viewBox="0 0 16 22.86"><defs><style>.cls-1{fill:#ffb92e;}</style></defs><title>icoPromoOperadora</title><g id="Layer_2" data-name="Layer 2"><g id="Mockups"><path class="cls-1" d="M15.75.43A1.14,1.14,0,0,0,14.86,0H1.14A1.14,1.14,0,0,0,0,1.39L2.31,11.68l2.23-.5-2-8.9H5.94l.91,4.57H9.14l.91-4.57h3.38l-2,8.9,2.23.5L16,1.39A1.14,1.14,0,0,0,15.75.43Z"/><path class="cls-1" d="M12.57,22.86a1.14,1.14,0,0,1-.51-.12L8,20.71l-4.06,2a1.14,1.14,0,0,1-1.62-1.3l1-4.08-2-3a1.14,1.14,0,0,1,1-1.78H5L7,8.63a1.19,1.19,0,0,1,2,0l2,3.94h2.72a1.14,1.14,0,0,1,1,1.78l-2,3,1,4.08a1.14,1.14,0,0,1-1.11,1.42ZM8,18.29a1.14,1.14,0,0,1,.51.12l2.35,1.17-.54-2.16a1.14,1.14,0,0,1,.16-.91l1.1-1.65H10.29a1.14,1.14,0,0,1-1-.63L8,11.7,6.74,14.23a1.14,1.14,0,0,1-1,.63H4.42l1.1,1.65a1.14,1.14,0,0,1,.16.91l-.54,2.16,2.35-1.17A1.14,1.14,0,0,1,8,18.29Z"/></g></g></svg>