<svg xmlns="http://www.w3.org/2000/svg" viewBox="0 0 130 26"><defs><style>.cls-1{fill:#fff;}</style></defs><title>logoNeeru2</title><g id="Layer_2" data-name="Layer 2"><g id="Mockups"><path class="cls-1" d="M97.8,11.14a4.56,4.56,0,0,0-3.23-1.92,4.31,4.31,0,0,0-2.28.72L90,24.49l-9.76,0L83.88,1.08,92,.6l.14,1.92A9.87,9.87,0,0,1,97.47.6,7.68,7.68,0,0,1,103.78,4Z"/><path class="cls-1" d="M105.73,1s9.5,0,9.5,0l-2.09,12.05c-.33,1.92,0,4.07,1.66,4.07a10.51,10.51,0,0,0,3.47-1L120.22,1H130l-3,23.48-8.69,0-.18-.88a17.65,17.65,0,0,1-6.74,1.92c-6.41,0-9.45-3.12-7.79-12.46Z"/><path class="cls-1" d="M71.47.12c7.6,0,10.26,3.83,9.59,7.67C80,14,74.22,16.89,68.52,16.89c-1.9,0-3.66-.08-3.66-.08s.71,1.54,3.9,1.52a18.73,18.73,0,0,0,6.89-1.44L78,23.12A23.15,23.15,0,0,1,67.43,26c-7.6,0-14-4.31-12.4-13.42C56.32,5.39,63.39.12,71.47.12m.43,8.39c.19-1-.38-1.68-1.57-1.68-1.9,0-3.51,1-4.56,3.88,4.32,0,5.94-1,6.13-2.2"/><path class="cls-1" d="M44.76.12C52.36.12,55,4,54.36,7.79c-1.09,6.23-6.84,9.11-12.54,9.11a16.41,16.41,0,0,1-3.7-.48s-.07,1.92,3.94,1.92a18.73,18.73,0,0,0,6.89-1.44l2.33,6.23A23.15,23.15,0,0,1,40.73,26c-7.6,0-14-4.31-12.4-13.42C29.61,5.39,36.69.12,44.76.12m.43,8.39c.19-1-.38-1.68-1.57-1.68-1.9,0-3.51,1-4.56,3.88,4.32,0,5.94-1,6.13-2.2"/><path class="cls-1" d="M24.48,24.51s-9.5,0-9.5,0l2.09-12.05c.33-1.92,0-4.07-1.66-4.07a10.51,10.51,0,0,0-3.47,1L9.74,24.51H0L3.16,1l8.69,0,.18.88A17.65,17.65,0,0,1,18.78,0c6.41,0,9.45,3.12,7.79,12.46Z"/></g></g></svg>