<svg xmlns="http://www.w3.org/2000/svg" viewBox="0 0 38.59 30"><defs><style>.cls-1{fill:#f79f1a;}.cls-2{fill:#ea001b;}.cls-3{fill:#ff5f01;}</style></defs><title>master</title><g id="Layer_2" data-name="Layer 2"><g id="Mockups"><g id="g3125"><g id="g3115"><g id="g3110"><path id="path2997" class="cls-1" d="M38.59,12A11.93,11.93,0,1,1,26.66,0,11.95,11.95,0,0,1,38.59,12Z"/><path id="path2995" class="cls-2" d="M23.87,12A11.93,11.93,0,1,1,11.93,0,11.95,11.95,0,0,1,23.87,12Z"/><path id="path2999" class="cls-3" d="M19.3,2.54a12,12,0,0,0,0,18.83,12,12,0,0,0,0-18.83Z"/></g></g><g id="g3093"><g id="g3081"><path id="path3006" d="M2.65,29.83H2V26.67h.66v.39a2.17,2.17,0,0,1,.93-.46,1.46,1.46,0,0,1,1.08.58,1.25,1.25,0,0,1,1.06-.58,1.22,1.22,0,0,1,1.25,1v2.23H6.31v-2a.62.62,0,0,0-.7-.6.72.72,0,0,0-.8.6v2H4.13v-2a.69.69,0,0,0-.68-.62c-.8,0-.81.64-.81.64Z"/><path id="path3008" d="M23.25,26.59a2.17,2.17,0,0,0-.93.46v-.38h-.66v3.16h.68v-2s0-.64.81-.64a.66.66,0,0,1,.35.09h0l.22-.62A1.22,1.22,0,0,0,23.25,26.59Z"/><path id="path3013" d="M32.79,26.59a2.17,2.17,0,0,0-.93.46v-.38H31.2v3.16h.68v-2s0-.64.81-.64a.66.66,0,0,1,.35.09h0l.22-.62a1.22,1.22,0,0,0-.45-.1Z"/><path id="path3015" d="M9.15,26.58a1.61,1.61,0,0,0-1.55,1.67,1.66,1.66,0,0,0,1.58,1.68,1.75,1.75,0,0,0,1-.42v.32h.67V26.67H10.2v.4a1.57,1.57,0,0,0-1.06-.49Zm.13.64a1.06,1.06,0,1,1-1,1.06A1,1,0,0,1,9.28,27.22Z"/><path id="path3020" d="M28.59,26.58A1.61,1.61,0,0,0,27,28.25a1.66,1.66,0,0,0,1.58,1.68,1.75,1.75,0,0,0,1-.42v.32h.67V26.67h-.67v.4a1.57,1.57,0,0,0-1.06-.49Zm.13.64a1.06,1.06,0,1,1-1,1.06A1,1,0,0,1,28.72,27.22Z"/><path id="path3022" d="M35,26.58a1.61,1.61,0,0,0-1.55,1.67A1.66,1.66,0,0,0,35,29.93a1.75,1.75,0,0,0,1-.42v.32h.67V25.42H36v1.65A1.57,1.57,0,0,0,35,26.58Zm.13.64a1.06,1.06,0,1,1-1,1.06A1,1,0,0,1,35.12,27.22Z"/><path id="path3024" d="M12.91,29.94a2.74,2.74,0,0,1-1.33-.42l.29-.45a3.14,3.14,0,0,0,1,.28c.28,0,.75-.09.76-.37s-.79-.39-.79-.39-1.19,0-1.19-1c0-.62.59-1,1.35-1A4.29,4.29,0,0,1,14.3,27l-.33.52a4.14,4.14,0,0,0-1-.27c-.28,0-.62.13-.62.37,0,.67,2-.05,2,1.3,0,.89-.81,1-1.45,1Z"/><path id="path3026" d="M15.45,25.75v.92h-.59v.66h.59v1.59A1,1,0,0,0,16.56,30a3.87,3.87,0,0,0,.95-.24l-.27-.69a.9.9,0,0,1-.53.21c-.53,0-.52-.36-.52-.36V27.34h1.1v-.66h-1.1v-.92Z"/><path id="path3034" d="M19.46,26.61A1.69,1.69,0,0,0,19.53,30a3.05,3.05,0,0,0,1.23-.45L20.45,29a2,2,0,0,1-.92.35.9.9,0,0,1-.92-.84h2.31S21.09,26.61,19.46,26.61Zm-.1.62h.08a.76.76,0,0,1,.81.77H18.61A.74.74,0,0,1,19.37,27.23Z"/><path id="path3037" d="M26.34,29l.31.62a2.17,2.17,0,0,1-1,.32,1.69,1.69,0,0,1-1.77-1.67,1.59,1.59,0,0,1,1.69-1.65,2.35,2.35,0,0,1,1.15.36l-.35.62a1,1,0,0,0-.83-.33,1,1,0,0,0,0,2.08,1.42,1.42,0,0,0,.83-.34Z"/></g></g></g></g></g></svg>