<svg xmlns="http://www.w3.org/2000/svg" viewBox="0 0 14.94 16"><defs><style>.cls-1{fill:#88918c;}</style></defs><title>menuMovimientoGrs</title><g id="Layer_2" data-name="Layer 2"><g id="Mockups"><polygon class="cls-1" points="13.45 0.53 13.45 2.46 10.99 0 9.93 1.06 12.39 3.52 10.46 3.52 10.46 5.01 14.94 5.01 14.94 0.53 13.45 0.53"/><polygon class="cls-1" points="4.48 12.48 4.48 10.99 0 10.99 0 15.47 1.49 15.47 1.49 13.54 3.96 16 5.01 14.94 2.55 12.48 4.48 12.48"/><path class="cls-1" d="M12.7,5.76H7.47A1.5,1.5,0,0,0,6,7.25V14a1.5,1.5,0,0,0,1.49,1.49H12.7A1.5,1.5,0,0,0,14.2,14V7.25A1.5,1.5,0,0,0,12.7,5.76ZM7.47,14V7.25H12.7V14Z"/><path class="cls-1" d="M2.24,2H7.47V5H9V2A1.5,1.5,0,0,0,7.47.53H2.24A1.5,1.5,0,0,0,.75,2V8.75a1.5,1.5,0,0,0,1.49,1.49h3V8.75h-3Z"/></g></g></svg>