<svg xmlns="http://www.w3.org/2000/svg" viewBox="0 0 21.33 16"><defs><style>.cls-1{fill:#0db731;}</style></defs><title>menuTDCVrd</title><g id="Layer_2" data-name="Layer 2"><g id="Mockups"><path class="cls-1" d="M19.56,0H8.89A1.78,1.78,0,0,0,7.11,1.78v.89H8.89V1.78H19.56V3.56H13.33V5.33h6.22v5.33H8.89V9.78H7.11v.89a1.78,1.78,0,0,0,1.78,1.78h5.67l-.64,1.29a.88.88,0,0,1-.79.49H7.48L5.33,12.08V7.48L7.48,5.33h3.19v.89a.89.89,0,0,1-.89.89H8V8.89H9.78a2.67,2.67,0,0,0,2.67-2.67V4.44a.89.89,0,0,0-.89-.89H7.11a.88.88,0,0,0-.63.26L4.85,5.45a.86.86,0,0,0-.41-.11H.89A.89.89,0,0,0,0,6.22v7.11a.89.89,0,0,0,.89.89H4.44a.86.86,0,0,0,.41-.11l1.63,1.63a.9.9,0,0,0,.63.26h6a2.65,2.65,0,0,0,2.38-1.47l1-2.08h3a1.78,1.78,0,0,0,1.78-1.78V1.78A1.78,1.78,0,0,0,19.56,0Zm-16,12.44H1.78V7.11H3.56Z"/></g></g></svg>