<svg xmlns="http://www.w3.org/2000/svg" viewBox="0 0 19.42 16"><defs><style>.cls-1{fill:#88918c;}</style></defs><title>menuPerfilGrs</title><g id="Layer_2" data-name="Layer 2"><g id="Mockups"><path class="cls-1" d="M6.84,9.16a3.42,3.42,0,1,1,3.42-3.42A3.43,3.43,0,0,1,6.84,9.16ZM6.84,4A1.71,1.71,0,1,0,8.55,5.74,1.71,1.71,0,0,0,6.84,4Z"/><path class="cls-1" d="M13.68,16H0v-.86C0,12.12,2.81,10,6.84,10s6.84,2.11,6.84,5.13ZM1.85,14.29h10c-.51-1.55-2.42-2.57-5-2.57S2.36,12.74,1.85,14.29Z"/><polygon class="cls-1" points="14.54 6.09 11.37 2.92 12.58 1.71 14.54 3.67 18.21 0 19.42 1.21 14.54 6.09"/></g></g></svg>