<svg xmlns="http://www.w3.org/2000/svg" viewBox="0 0 22 22"><defs><style>.cls-1{fill:#0db731;}</style></defs><title>carita1</title><g id="Layer_2" data-name="Layer 2"><g id="Mockups"><path class="cls-1" d="M7.7,10.45A1.93,1.93,0,1,0,5.78,8.53,1.93,1.93,0,0,0,7.7,10.45Zm0-2.2A.28.28,0,0,1,8,8.53c0,.3-.55.3-.55,0A.28.28,0,0,1,7.7,8.25Z"/><path class="cls-1" d="M11,0A11,11,0,1,0,22,11,11,11,0,0,0,11,0Zm0,19.8A8.8,8.8,0,1,1,19.8,11,8.81,8.81,0,0,1,11,19.8Z"/><path class="cls-1" d="M11,15.4a4.37,4.37,0,0,1-3.52-1.76L5.72,15a6.6,6.6,0,0,0,10.56,0l-1.76-1.32A4.36,4.36,0,0,1,11,15.4Z"/><rect class="cls-1" x="12.1" y="7.7" width="4.4" height="2.2"/></g></g></svg>