<svg xmlns="http://www.w3.org/2000/svg" viewBox="0 0 32 32"><defs><style>.cls-1{fill:#0db731;}</style></defs><title>carita3</title><g id="Layer_2" data-name="Layer 2"><g id="Mockups"><path class="cls-1" d="M24,17.6H8a1.6,1.6,0,0,0-1.6,1.6c0,4.19,4.58,8,9.6,8s9.6-3.81,9.6-8A1.6,1.6,0,0,0,24,17.6ZM16,24a7.08,7.08,0,0,1-5.92-3.2H21.94A7,7,0,0,1,16,24Z"/><path class="cls-1" d="M16,0A16,16,0,1,0,32,16,16,16,0,0,0,16,0Zm0,28.8A12.8,12.8,0,1,1,28.8,16,12.81,12.81,0,0,1,16,28.8Z"/><rect class="cls-1" x="9.6" y="8" width="3.2" height="6.4"/><rect class="cls-1" x="19.2" y="8" width="3.2" height="6.4"/></g></g></svg>