<svg xmlns="http://www.w3.org/2000/svg" viewBox="0 0 16.62 18"><defs><style>.cls-1{fill:#fff;}</style></defs><title>icoAddNumero</title><g id="Layer_2" data-name="Layer 2"><g id="Mockups"><polygon class="cls-1" points="13.67 5.17 11.87 5.19 11.89 8.11 8.97 8.13 8.99 9.93 11.91 9.91 11.93 12.82 13.73 12.81 13.71 9.89 16.63 9.87 16.61 8.07 13.69 8.09 13.67 5.17"/><path class="cls-1" d="M1.8,12.6V5.4h9V1.8A1.8,1.8,0,0,0,9,0H1.8A1.8,1.8,0,0,0,0,1.8V16.2A1.8,1.8,0,0,0,1.8,18H9a1.8,1.8,0,0,0,1.8-1.8V12.6ZM9,1.8V3.6H1.8V1.8ZM1.8,16.2V14.4H9v1.8Z"/></g></g></svg>