<svg xmlns="http://www.w3.org/2000/svg" viewBox="0 0 18 21.2"><defs><style>.cls-1{fill:#fff;}</style></defs><title>icoEnviarRecarga</title><g id="Layer_2" data-name="Layer 2"><g id="Mockups"><path class="cls-1" d="M2.12,14.84V6.36h10.6V2.12A2.12,2.12,0,0,0,10.6,0H2.12A2.12,2.12,0,0,0,0,2.12v17A2.12,2.12,0,0,0,2.12,21.2H10.6a2.12,2.12,0,0,0,2.12-2.12V14.84ZM10.6,2.12V4.24H2.12V2.12Zm-8.48,17V17H10.6v2.12Z"/><polygon class="cls-1" points="7.16 7.99 5.57 10.11 10.84 14.06 18 5.07 15.93 3.42 10.37 10.39 7.16 7.99"/></g></g></svg>