<svg xmlns="http://www.w3.org/2000/svg" viewBox="0 0 16 16"><defs><style>.cls-1{fill:#aeb7b1;}</style></defs><title>icoEdit</title><g id="Layer_2" data-name="Layer 2"><g id="Mockups"><path class="cls-1" d="M15.06.94a3.22,3.22,0,0,0-4.55,0L1.38,10.07a.8.8,0,0,0-.21.37L0,15a.8.8,0,0,0,1,1l4.56-1.14a.8.8,0,0,0,.37-.21L15.06,5.5a3.22,3.22,0,0,0,0-4.55ZM5.66,11.47l6-6,.58.58L5.86,12.44ZM4.53,10.34l-1-.19L9.93,3.78l.58.58Zm-2,1.23,1.58.32.32,1.58L1.9,14.1Zm8.53-8.92.58-.57a1.66,1.66,0,0,1,2.29,0h0a1.66,1.66,0,0,1,0,2.29l-.57.58Z"/></g></g></svg>