<svg xmlns="http://www.w3.org/2000/svg" viewBox="0 0 24.28 20"><defs><style>.cls-1{fill:#fff;}</style></defs><title>icoMiPerfil</title><g id="Layer_2" data-name="Layer 2"><g id="Mockups"><path class="cls-1" d="M8.55,11.45a4.28,4.28,0,1,1,4.28-4.28A4.28,4.28,0,0,1,8.55,11.45ZM8.55,5a2.14,2.14,0,1,0,2.14,2.14A2.14,2.14,0,0,0,8.55,5Z"/><path class="cls-1" d="M17.11,20H0V18.93c0-3.78,3.52-6.41,8.55-6.41s8.55,2.64,8.55,6.41ZM2.31,17.86H14.8c-.64-1.93-3-3.21-6.25-3.21S2.95,15.93,2.31,17.86Z"/><polygon class="cls-1" points="18.18 7.61 14.21 3.65 15.72 2.14 18.18 4.59 22.77 0 24.28 1.51 18.18 7.61"/></g></g></svg>