<svg xmlns="http://www.w3.org/2000/svg" viewBox="0 0 21 18"><defs><style>.cls-1{fill:#0db731;}</style></defs><title>icoPopular</title><g id="Layer_2" data-name="Layer 2"><g id="Mockups"><path class="cls-1" d="M20.77,5.36A1,1,0,0,0,20,5H14V1a1,1,0,0,0-1-1H10a1,1,0,0,0-.92.61L6.34,7H6A1,1,0,0,0,5,6H1A1,1,0,0,0,0,7V17a1,1,0,0,0,1,1H5a1,1,0,0,0,1-1v-.52l3.63,1.45A1,1,0,0,0,10,18h8a1,1,0,0,0,1-.82l2-11A1,1,0,0,0,20.77,5.36ZM4,16H2V8H4Zm13.17,0h-7L6,14.32V9H7a1,1,0,0,0,.92-.61L10.66,2H12V6a1,1,0,0,0,1,1h5.8Z"/></g></g></svg>