<svg xmlns="http://www.w3.org/2000/svg" viewBox="0 0 20 20"><defs><style>.cls-1{fill:#fff;}</style></defs><title>icoSaldo</title><g id="Layer_2" data-name="Layer 2"><g id="Mockups"><path class="cls-1" d="M19,8H18V6a2,2,0,0,0-2-2h-.38L13.89.55A1,1,0,0,0,12.63.07L2.81,4H2A2,2,0,0,0,0,6V18a2,2,0,0,0,2,2H16a2,2,0,0,0,2-2V16h1a1,1,0,0,0,1-1V9A1,1,0,0,0,19,8ZM12.52,2.27,13.38,4H8.19ZM16,18H2V6H16V8H13a1,1,0,0,0-.71.29l-3,3a1,1,0,0,0,0,1.41l3,3A1,1,0,0,0,13,16h3Zm2-4H13.41l-2-2,2-2H18Z"/><circle class="cls-1" cx="14" cy="12" r="1"/></g></g></svg>