<svg xmlns="http://www.w3.org/2000/svg" viewBox="0 0 26.67 20"><defs><style>.cls-1{fill:#fff;}</style></defs><title>icoTDCAfiliada</title><g id="Layer_2" data-name="Layer 2"><g id="Mockups"><path class="cls-1" d="M24.44,0H11.11A2.22,2.22,0,0,0,8.89,2.22V3.33h2.22V2.22H24.44V4.44H16.67V6.67h7.78v6.67H11.11V12.22H8.89v1.11a2.22,2.22,0,0,0,2.22,2.22H18.2l-.8,1.61a1.1,1.1,0,0,1-1,.61H9.35L6.67,15.1V9.35L9.35,6.67h4V7.78a1.11,1.11,0,0,1-1.11,1.11H10v2.22h2.22a3.34,3.34,0,0,0,3.33-3.33V5.56a1.11,1.11,0,0,0-1.11-1.11H8.89a1.1,1.1,0,0,0-.79.33l-2,2a1.08,1.08,0,0,0-.51-.14H1.11A1.11,1.11,0,0,0,0,7.78v8.89a1.11,1.11,0,0,0,1.11,1.11H5.56a1.08,1.08,0,0,0,.51-.14l2,2a1.12,1.12,0,0,0,.79.32H16.4a3.31,3.31,0,0,0,3-1.84l1.3-2.6h3.76a2.22,2.22,0,0,0,2.22-2.22V2.22A2.22,2.22,0,0,0,24.44,0Zm-20,15.56H2.22V8.89H4.44Z"/></g></g></svg>