<svg xmlns="http://www.w3.org/2000/svg" viewBox="0 0 22 21"><defs><style>.cls-1{fill:#88918c;}</style></defs><title>icoVence</title><g id="Layer_2" data-name="Layer 2"><g id="Mockups"><path class="cls-1" d="M20,2H17V0H15V6h2V4h3V19H2V4H4V2H2A2,2,0,0,0,0,4V19a2,2,0,0,0,2,2H20a2,2,0,0,0,2-2V4A2,2,0,0,0,20,2Z"/><polygon class="cls-1" points="7 4 14 4 14 2 7 2 7 0 5 0 5 6 7 6 7 4"/><rect class="cls-1" x="4" y="8" width="4" height="4"/><rect class="cls-1" x="9" y="8" width="4" height="4"/><rect class="cls-1" x="14" y="8" width="4" height="4"/><rect class="cls-1" x="4" y="13" width="4" height="4"/><rect class="cls-1" x="9" y="13" width="4" height="4"/></g></g></svg>