<svg xmlns="http://www.w3.org/2000/svg" viewBox="0 0 16 16"><defs><style>.cls-1{fill:#88918c;}</style></defs><title>menuNumFrecGrs</title><g id="Layer_2" data-name="Layer 2"><g id="Mockups"><polygon class="cls-1" points="9.26 0 9.26 1.68 13.13 1.68 7.83 6.98 9.02 8.17 14.32 2.88 14.32 6.74 16 6.74 16 0 9.26 0"/><path class="cls-1" d="M14.32,9.26H10.95a1.69,1.69,0,0,0-1.68,1.62A5,5,0,0,1,5.13,6.73,1.69,1.69,0,0,0,6.74,5.05V1.68A1.69,1.69,0,0,0,5.05,0H1.68A1.69,1.69,0,0,0,0,1.68V5.89A10.12,10.12,0,0,0,10.11,16h4.21A1.69,1.69,0,0,0,16,14.32V10.95A1.69,1.69,0,0,0,14.32,9.26Zm-4.21,5.05A8.43,8.43,0,0,1,1.68,5.89V1.68H5.05V5.05H4.21a.84.84,0,0,0-.84.86,6.66,6.66,0,0,0,6.74,6.72.84.84,0,0,0,.84-.84v-.84h3.37v3.37Z"/></g></g></svg>