<svg xmlns="http://www.w3.org/2000/svg" viewBox="0 0 24 24"><defs><style>.cls-1{fill:#0db731;}</style></defs><title>icoPagoVrd</title><g id="Layer_2" data-name="Layer 2"><g id="Mockups"><path class="cls-1" d="M15,3V4.05A2.5,2.5,0,0,0,15.5,9h1a.5.5,0,0,1,0,1H15v3h2V12a2.5,2.5,0,0,0-.5-5h-1a.5.5,0,0,1,0-1H19V4H17V3Z"/><path class="cls-1" d="M19,18a1,1,0,0,1-1,1H13v2h4a1,1,0,0,1-1,1H8.41L6,19.59V14.41L8.41,12H12v1a1,1,0,0,1-1,1H9v2h2a3,3,0,0,0,3-3V11a1,1,0,0,0-1-1H8a1,1,0,0,0-.71.29L5.46,12.13A1,1,0,0,0,5,12H1a1,1,0,0,0-1,1v8a1,1,0,0,0,1,1H5a1,1,0,0,0,.46-.13l1.83,1.83A1,1,0,0,0,8,24h8a3,3,0,0,0,3-3v-.18A3,3,0,0,0,21,18V17H19ZM4,20H2V14H4Z"/><path class="cls-1" d="M16,0A8,8,0,0,0,8.07,9h2A6,6,0,1,1,15,13.91v2A8.12,8.12,0,0,0,16,16,8,8,0,0,0,16,0Z"/></g></g></svg>