<svg xmlns="http://www.w3.org/2000/svg" viewBox="0 0 16 20"><defs><style>.cls-1{fill:#aeb7b1;}</style></defs><title>icoResumen</title><g id="Layer_2" data-name="Layer 2"><g id="Mockups"><polygon class="cls-1" points="7 6.59 5.71 5.29 4.29 6.71 7 9.41 11.71 4.71 10.29 3.29 7 6.59"/><polygon class="cls-1" points="7 13.59 5.71 12.29 4.29 13.71 7 16.41 11.71 11.71 10.29 10.29 7 13.59"/><path class="cls-1" d="M14,0H2A2,2,0,0,0,0,2V18a2,2,0,0,0,2,2H14a2,2,0,0,0,2-2V2A2,2,0,0,0,14,0ZM2,18V2H14V18Z"/></g></g></svg>