<svg xmlns="http://www.w3.org/2000/svg" viewBox="0 0 55.6 18"><defs><style>.cls-1{isolation:isolate;}.cls-2{fill:#005bac;}.cls-3{fill:#f6ac1d;}</style></defs><title>visa</title><g id="Layer_2" data-name="Layer 2"><g id="Mockups"><g id="形状_1" data-name="形状 1" class="cls-1"><g id="形状_1-2" data-name="形状 1"><path class="cls-2" d="M22.47.31,19.64,17.7h4.53L27,.31H22.47Zm-6.64,0-4.32,12L11,9.7h0l-.11-.58A14.42,14.42,0,0,0,6.87,4a18.11,18.11,0,0,0-2-1.39L8.78,17.7H13.5L20.7.31H15.83ZM33.5,5.14c0-2,4.41-1.71,6.35-.65L40.49.76A13.07,13.07,0,0,0,36.42,0c-2.25,0-7.58,1-7.58,5.76,0,4.49,6.26,4.55,6.26,6.91s-5.62,1.94-7.47.45L27,17a12.68,12.68,0,0,0,5.11,1c3.09,0,7.75-1.6,7.75-6C39.82,7.53,33.5,7.1,33.5,5.14ZM52,.31H48.33a2.08,2.08,0,0,0-2.09,1.3L39.49,17.7h4.72l.94-2.58h5.76l.53,2.58H55.6ZM46.46,11.55,48.84,5l1.34,6.51Z"/></g></g><g id="形状_1-3" data-name="形状 1" class="cls-1"><g id="形状_1-4" data-name="形状 1"><path class="cls-3" d="M9.54,1.95A2,2,0,0,0,7.35.38H.09L0,.67A18,18,0,0,1,6.85,4.05a13.58,13.58,0,0,1,4.25,5.73Z"/></g></g></g></g></svg>